<svg xmlns="http://www.w3.org/2000/svg"  viewBox="0 0 40 40" width="40px" height="40px" baseProfile="basic"><path fill="#f78f8f" d="M4.5,2.5h31c1.105,0,2,0.895,2,2v31c0,1.105-0.895,2-2,2h-31c-1.105,0-2-0.895-2-2v-31	C2.5,3.395,3.395,2.5,4.5,2.5z"/><path fill="#c74343" d="M35.5,38h-31C3.121,38,2,36.879,2,35.5v-31C2,3.121,3.121,2,4.5,2h31C36.879,2,38,3.121,38,4.5v31	C38,36.879,36.879,38,35.5,38z M4.5,3C3.673,3,3,3.673,3,4.5v31C3,36.327,3.673,37,4.5,37h31c0.827,0,1.5-0.673,1.5-1.5v-31	C37,3.673,36.327,3,35.5,3H4.5z"/><path fill="#36404d" d="M32.298,19.321c-0.032-0.059-0.075-0.109-0.109-0.167c0.915-1.834,0.95-4.199-0.075-6.147	c-1.184-2.376-3.822-4.025-6.553-3.997c-0.067-0.002-0.132,0.01-0.199,0.011c-1.13-1.709-3.162-2.922-5.361-3.008	c-2.649-0.163-5.397,1.298-6.738,3.676c-0.035,0.057-0.057,0.12-0.09,0.178c-2.046,0.124-4.112,1.277-5.286,3.139	c-1.466,2.213-1.574,5.323-0.185,7.674c0.032,0.059,0.075,0.109,0.109,0.167c-0.915,1.834-0.95,4.199,0.075,6.147	c1.184,2.376,3.822,4.025,6.553,3.997c0.067,0.002,0.132-0.01,0.199-0.011c1.13,1.71,3.162,2.922,5.361,3.008	c2.649,0.163,5.397-1.298,6.738-3.676c0.035-0.057,0.057-0.12,0.09-0.178c2.046-0.124,4.112-1.277,5.286-3.139	C33.579,24.782,33.687,21.672,32.298,19.321z M30.124,14.156c0.699,1.016,1.047,2.29,0.992,3.614	c-0.503-0.497-1.073-0.928-1.676-1.281c-1.19-0.632-2.55-0.977-3.881-0.894c-2.04,0.062-3.938,1.121-5.098,2.637	c-0.133-0.035-0.266-0.053-0.4-0.057c-0.136-1.468,0.215-2.881,0.983-3.993c1.013-1.518,2.754-2.437,4.515-2.44	C27.339,11.703,29.072,12.64,30.124,14.156z M15.627,11.057c0.856-1.561,2.535-2.593,4.373-2.747	c1.23-0.098,2.507,0.238,3.626,0.949c-0.682,0.187-1.34,0.466-1.947,0.811c-1.142,0.715-2.121,1.72-2.715,2.914	c-0.966,1.797-0.998,3.97-0.266,5.733c-0.094,0.095-0.179,0.2-0.252,0.317c-1.338-0.617-2.385-1.626-2.964-2.847	C14.675,14.55,14.75,12.583,15.627,11.057z M9.877,14.154c0.53-1.114,1.46-2.052,2.634-2.666c-0.179,0.684-0.267,1.393-0.271,2.091	c0.048,1.346,0.429,2.697,1.166,3.808c1.072,1.734,2.935,2.847,4.826,3.096c0.036,0.131,0.09,0.257,0.155,0.377	c-1.203,0.85-2.601,1.252-3.947,1.143c-1.821-0.119-3.487-1.167-4.37-2.69C9.145,17.793,9.091,15.823,9.877,14.154z M9.876,25.844	c-0.699-1.016-1.047-2.29-0.992-3.614c0.503,0.497,1.073,0.928,1.676,1.281c1.19,0.632,2.55,0.977,3.881,0.894	c2.04-0.062,3.938-1.121,5.098-2.637c0.133,0.035,0.266,0.053,0.4,0.057c0.136,1.468-0.215,2.881-0.983,3.993	c-1.013,1.518-2.754,2.437-4.515,2.44C12.661,28.297,10.928,27.359,9.876,25.844z M24.373,28.943	c-0.856,1.561-2.535,2.593-4.373,2.747c-1.229,0.098-2.507-0.238-3.626-0.949c0.682-0.187,1.34-0.466,1.947-0.811	c1.142-0.715,2.121-1.72,2.715-2.914c0.966-1.797,0.998-3.97,0.266-5.733c0.094-0.095,0.179-0.2,0.252-0.317	c1.338,0.617,2.385,1.626,2.964,2.847C25.325,25.45,25.25,27.417,24.373,28.943z M30.123,25.846c-0.53,1.114-1.46,2.052-2.634,2.666	c0.179-0.684,0.267-1.393,0.271-2.091c-0.048-1.346-0.429-2.697-1.166-3.808c-1.072-1.733-2.935-2.847-4.826-3.096	c-0.036-0.131-0.09-0.257-0.155-0.377c1.203-0.85,2.601-1.252,3.947-1.143c1.821,0.119,3.487,1.167,4.37,2.69	C30.855,22.207,30.909,24.177,30.123,25.846z"/></svg>